<?xml version="1.0" encoding="iso-8859-1"?>
<!-- Generator: Adobe Illustrator 19.0.0, SVG Export Plug-In . SVG Version: 6.00 Build 0)  -->
<svg version="1.1" id="Capa_1" xmlns="http://www.w3.org/2000/svg" xmlns:xlink="http://www.w3.org/1999/xlink" x="0px" y="0px"
	 viewBox="0 0 512 512" style="enable-background:new 0 0 512 512;" xml:space="preserve">
<g>
	<g>
		<path fill="#fff" d="M378,122c-20.952,0-40.794,4.838-58.475,13.449C301.369,126.631,281.369,122,261,122
			c-22.942,0-44.554,5.799-63.452,16.003C178.09,127.508,156.308,122,134,122C60.112,122,0,182.112,0,256s60.112,134,134,134
			c22.309,0,44.09-5.508,63.548-16.003C216.446,384.201,238.058,390,261,390c20.293,0,40.385-4.643,58.526-13.449
			C337.206,385.162,357.048,390,378,390c73.888,0,134-60.112,134-134S451.888,122,378,122z M161.668,345.844
			C152.768,348.579,143.455,350,134,350c-51.832,0-94-42.168-94-94c0-51.832,42.168-94,94-94c9.455,0,18.768,1.421,27.668,4.156
			C140.135,189.941,127,221.465,127,256C127,290.535,140.135,322.059,161.668,345.844z M280.601,347.929
			C274.181,349.293,267.607,350,261,350c-51.832,0-94-42.168-94-94c0-51.832,42.168-94,94-94c6.628,0,13.197,0.702,19.607,2.064
			C257.927,188.077,244,220.441,244,256C244,291.556,257.924,323.917,280.601,347.929z M378,350c-51.832,0-94-42.168-94-94
			c0-51.832,42.168-94,94-94c51.832,0,94,42.168,94,94C472,307.832,429.832,350,378,350z"/>
	</g>
</g>
<g>
</g>
<g>
</g>
<g>
</g>
<g>
</g>
<g>
</g>
<g>
</g>
<g>
</g>
<g>
</g>
<g>
</g>
<g>
</g>
<g>
</g>
<g>
</g>
<g>
</g>
<g>
</g>
<g>
</g>
</svg>
