<svg height="480pt" viewBox="-27 0 480 480" width="480pt" xmlns="http://www.w3.org/2000/svg">
    <path fill="#fff" d="m362.023438 240c53.144531-49.070312 74.578124-92.566406 58.695312-120-15.878906-27.433594-64.222656-30.671875-133.324219-9.199219-.859375-3.730469-1.601562-7.457031-2.59375-11.199219 12.554688-7.195312 18.695313-21.933593 14.96875-35.914062-3.730469-13.980469-16.398437-23.699219-30.863281-23.6875-2.03125.023438-4.054688.242188-6.042969.65625-14.277343-26.519531-31.4375-40.65625-49.957031-40.65625-31.707031 0-58.65625 40.296875-74.570312 110.792969-69.0625-21.457031-117.429688-18.25-133.238282 9.207031s5.542969 70.9375 58.671875 120c-4.359375 4-8.503906 7.9375-12.242187 11.703125-4.503906-2.398437-9.519532-3.667969-14.621094-3.703125-12.496094-.007812-23.851562 7.257812-29.082031 18.605469-5.230469 11.347656-3.375 24.699219 4.746093 34.195312-17.019531 29.855469-13.601562 48.582031-7.480468 59.199219 8.925781 15.496094 28.191406 23.289062 55.695312 23.289062 26.414063-.871093 52.558594-5.605468 77.597656-14.058593 15.875 70.480469 42.816407 110.769531 74.523438 110.769531 31.703125 0 58.671875-40.320312 74.574219-110.847656 7.199219 2.207031 14.398437 4.230468 21.488281 5.960937 0 .300781-.0625.582031-.0625.886719.101562 16.25 12.367188 29.84375 28.523438 31.605469 16.152343 1.765625 31.066406-8.855469 34.675781-24.703125 29.863281-1.597656 42.917969-13.109375 48.597656-22.886719 15.898437-27.449219-5.542969-70.953125-58.679687-120.015625zm-343.070313-112c11.367187-19.703125 56.617187-20.128906 116.144531-1.457031-3.976562 21.078125-6.753906 42.363281-8.320312 63.753906-17.757813 11.984375-34.789063 25.011719-51 39.015625-45.953125-42.214844-68.242188-81.609375-56.824219-101.3125zm106.679687 141.464844c-13.535156-9.601563-26.128906-19.464844-37.761718-29.464844 11.617187-9.992188 24.210937-19.847656 37.761718-29.457031-.433593 9.976562-.726562 19.855469-.726562 29.457031s.292969 19.480469.726562 29.464844zm-88.726562-5.464844c8.789062.109375 15.890625 7.207031 16 16-.007812 6.03125-3.40625 11.546875-8.792969 14.265625-5.382812 2.714844-11.839843 2.175781-16.695312-1.402344-4.132813-2.972656-6.5625-7.773437-6.511719-12.863281 0-8.835938 7.160156-16 16-16zm-17.960938 88c-5.496093-9.464844-3.058593-24.214844 6.808594-42.007812v-.089844c12.980469 4.96875 27.683594.929687 36.308594-9.96875 8.625-10.902344 9.171875-26.136719 1.355469-37.628906h.125c3.707031-3.710938 7.851562-7.601563 12.242187-11.609376 16.214844 14.011719 33.246094 27.046876 51.007813 39.03125 1.5625 21.394532 4.339843 42.683594 8.320312 63.761719-59.550781 18.648438-104.816406 18.222657-116.167969-1.488281zm243.398438-294.527344c2.050781-.976562 4.292969-1.480468 6.5625-1.472656 7.9375.121094 14.585938 6.042969 15.621094 13.917969 1.03125 7.871093-3.863282 15.308593-11.503906 17.472656-1.332032.417969-2.722657.621094-4.117188.609375-8.839844 0-16-7.164062-16-16-.015625-6.285156 3.6875-11.984375 9.4375-14.527344zm19.6875 121.597656c-8.046875-5.117187-16.34375-10.246093-25.125-15.308593-8.554688-4.9375-17.21875-9.601563-25.882812-14.136719 14.863281-6.800781 29.707031-12.800781 44.378906-17.96875 2.804687 15.078125 5.015625 30.894531 6.628906 47.449219zm-69.125-163.070312c12 0 24.476562 11.089844 35.542969 31.398438h.078125c-10.40625 8.585937-14.296875 22.78125-9.730469 35.472656 4.570313 12.691406 16.617187 21.148437 30.109375 21.128906.199219 0 .390625-.039062.597656-.039062h-.046875c1 3.949218 1.832031 7.910156 2.703125 11.871093-20.207031 7.085938-39.992187 15.328125-59.253906 24.679688-19.28125-9.351563-39.082031-17.585938-59.304688-24.664063 13.566407-60.863281 36.535157-99.847656 59.304688-99.847656zm-62.496094 115.6875c14.671875 5.183594 29.511719 11.199219 44.382813 17.96875-8.671875 4.527344-17.335938 9.199219-25.886719 14.136719-8.742188 5.050781-17.117188 10.132812-25.121094 15.246093 1.574219-16.511718 3.816406-32.320312 6.625-47.351562zm-6.632812 169.207031c8.046875 5.121094 16.34375 10.25 25.128906 15.3125 8.550781 4.9375 17.214844 9.601563 25.878906 14.136719-14.863281 6.800781-29.703125 12.800781-44.375 17.96875-2.808594-15.054688-5.015625-30.863281-6.632812-47.417969zm69.128906 163.105469c-22.761719 0-45.738281-38.976562-59.304688-99.847656 20.222657-7.078125 40.023438-15.3125 59.304688-24.664063 19.277344 9.347657 39.078125 17.582031 59.300781 24.664063-13.558593 60.863281-36.535156 99.847656-59.300781 99.847656zm62.496094-115.6875c-14.671875-5.183594-29.515625-11.199219-44.386719-17.96875 8.671875-4.527344 17.335937-9.199219 25.890625-14.136719 8.746094-5.050781 17.117188-10.132812 25.117188-15.246093-1.574219 16.503906-3.816407 32.320312-6.621094 47.351562zm8.191406-67.511719c-10.753906 7.199219-22.320312 14.398438-34.6875 21.550781-11.882812 6.863282-24 13.304688-36 19.304688-12-6-24.121094-12.441406-36-19.304688-12.355469-7.152343-23.914062-14.351562-34.691406-21.550781-.832032-13.863281-1.308594-27.59375-1.308594-40.800781s.476562-26.945312 1.308594-40.800781c10.753906-7.199219 22.320312-14.398438 34.691406-21.550781 11.878906-6.863282 24-13.304688 36-19.304688 12 6 24.117188 12.441406 36 19.304688 12.351562 7.128906 23.910156 14.398437 34.6875 21.550781.800781 13.863281 1.3125 27.59375 1.3125 40.800781s-.480469 26.945312-1.3125 40.800781zm123.269531-152.800781c11.410157 19.695312-10.878906 59.089844-56.796875 101.296875-16.214844-14.003906-33.246094-27.03125-51-39.015625-1.566406-21.394531-4.34375-42.683594-8.320312-63.761719 59.488281-18.65625 104.765625-18.230469 116.117187 1.480469zm-106.6875 82.535156c13.535157 9.601563 26.128907 19.464844 37.761719 29.464844-11.617188 9.992188-24.207031 19.847656-37.761719 29.457031.433594-9.976562.730469-19.855469.730469-29.457031s-.296875-19.480469-.730469-29.464844zm40.730469 181.464844c-8.839844 0-16-7.164062-16-16-.023438-1.558594.214844-3.109375.703125-4.59375 2.242187-7.457031 9.546875-12.203125 17.273437-11.222656 7.730469.980468 13.617188 7.402344 13.925782 15.183594 0 .28125 0 .570312.078125.847656-.117188 8.746094-7.234375 15.777344-15.980469 15.785156zm65.957031-40c-6.214843 10.710938-21.488281 14.175781-35.277343 14.945312l-.058594.132813c-3.523438-12.289063-14.058594-21.277344-26.746094-22.832031-12.691406-1.554688-25.082031 4.628906-31.46875 15.707031v-.113281c-7.382812-1.800782-14.953125-4-22.574219-6.398438 3.964844-21.070312 6.742188-42.347656 8.308594-63.730468 17.757813-11.984376 34.789063-25.011719 51-39.015626 45.9375 42.207032 68.226563 81.601563 56.816406 101.304688zm0 0"/>
    <path fill="#fff" d="m212.90625 192c-26.511719 0-48 21.492188-48 48s21.488281 48 48 48c26.507812 0 48-21.492188 48-48-.027344-26.5-21.503906-47.972656-48-48zm0 80c-17.675781 0-32-14.328125-32-32s14.324219-32 32-32c17.671875 0 32 14.328125 32 32s-14.328125 32-32 32zm0 0"/>
</svg>