<?xml version="1.0" encoding="iso-8859-1"?>
<!-- Generator: Adobe Illustrator 19.0.0, SVG Export Plug-In . SVG Version: 6.00 Build 0)  -->
<svg version="1.1" id="Capa_1" xmlns="http://www.w3.org/2000/svg" xmlns:xlink="http://www.w3.org/1999/xlink" x="0px" y="0px"
	 viewBox="0 0 512.017 512.017" style="enable-background:new 0 0 512.017 512.017;" xml:space="preserve">
<g>
	<g>
		<path fill="#fff" d="M498.046,2.961c-4.288-4.096-11.008-3.904-15.083,0.341L13.63,493.969c-4.075,4.267-3.904,11.008,0.341,15.083
			c2.069,1.984,4.715,2.965,7.381,2.965c2.816,0,5.611-1.109,7.701-3.307L498.387,18.043
			C502.462,13.777,502.291,7.035,498.046,2.961z"/>
	</g>
</g>
<g>
	<g>
		<path fill="#fff" d="M341.352,490.683H170.686c-5.888,0-10.667,4.779-10.667,10.667c0,5.888,4.779,10.667,10.667,10.667h170.667
			c5.888,0,10.667-4.779,10.667-10.667C352.019,495.462,347.24,490.683,341.352,490.683z"/>
	</g>
</g>
<g>
	<g>
		<path fill="#fff" d="M341.352,213.35c-5.888,0-10.667,4.779-10.667,10.667v64c0,29.397-23.936,53.333-53.333,53.333h-42.667
			c-5.888,0-10.667,4.779-10.667,10.667c0,5.888,4.779,10.667,10.667,10.667h42.667c41.173,0,74.667-33.493,74.667-74.667v-64
			C352.019,218.129,347.24,213.35,341.352,213.35z"/>
	</g>
</g>
<g>
	<g>
		<path fill="#fff" d="M277.352,0.017h-42.667c-41.173,0-74.667,33.493-74.667,74.667v213.333c0,5.888,4.779,10.667,10.667,10.667
			s10.667-4.779,10.667-10.667V74.683c0-29.397,23.936-53.333,53.333-53.333h42.667c29.397,0,53.333,23.936,53.333,53.333v42.667
			c0,5.888,4.779,10.667,10.667,10.667c5.888,0,10.667-4.779,10.667-10.667V74.683C352.019,33.51,318.526,0.017,277.352,0.017z"/>
	</g>
</g>
<g>
	<g>
		<path fill="#fff" d="M143.806,336.571c-3.392-8.661-5.12-17.835-5.12-27.221V202.683c0-5.888-4.779-10.667-10.667-10.667
			c-5.888,0-10.667,4.779-10.667,10.667V309.35c0,12.053,2.219,23.851,6.571,34.987c1.664,4.203,5.675,6.784,9.941,6.784
			c1.28,0,2.603-0.235,3.883-0.725C143.251,348.241,145.96,342.054,143.806,336.571z"/>
	</g>
</g>
<g>
	<g>
		<path fill="#fff" d="M384.019,192.017c-5.888,0-10.667,4.779-10.667,10.667V309.35c0,41.173-33.493,74.667-74.667,74.667h-85.333
			c-15.168,0-27.392-2.795-37.355-8.555c-5.12-2.987-11.627-1.216-14.571,3.883c-2.965,5.099-1.216,11.627,3.883,14.571
			c13.291,7.701,29.013,11.435,48.043,11.435h85.333c52.928,0,96-43.072,96-96V202.683
			C394.686,196.795,389.907,192.017,384.019,192.017z"/>
	</g>
</g>
<g>
	<g>
		<path fill="#fff" d="M256.019,384.017c-5.888,0-10.667,4.779-10.667,10.667V501.35c0,5.888,4.779,10.667,10.667,10.667
			c5.888,0,10.667-4.779,10.667-10.667V394.683C266.686,388.795,261.907,384.017,256.019,384.017z"/>
	</g>
</g>
<g>
	<g>
		<path fill="#fff" d="M277.352,170.683H170.686c-5.888,0-10.667,4.779-10.667,10.667s4.779,10.667,10.667,10.667h106.667
			c5.888,0,10.667-4.779,10.667-10.667S283.24,170.683,277.352,170.683z"/>
	</g>
</g>
<g>
</g>
<g>
</g>
<g>
</g>
<g>
</g>
<g>
</g>
<g>
</g>
<g>
</g>
<g>
</g>
<g>
</g>
<g>
</g>
<g>
</g>
<g>
</g>
<g>
</g>
<g>
</g>
<g>
</g>
</svg>
